HIERARCHY
ROOT Hips
{
	OFFSET -14.64140 90.27770 -84.91600
	CHANNELS 6 Xposition Yposition Zposition Zrotation Xrotation Yrotation
	JOINT Spine
	{
		OFFSET 0.00000 13.20850 -1.60436
		CHANNELS 3 Zrotation Xrotation Yrotation
		JOINT Spine1
		{
			OFFSET 0.00000 8.61716 0.00000
			CHANNELS 3 Zrotation Xrotation Yrotation
			JOINT Spine2
			{
				OFFSET 0.00000 8.61717 0.00000
				CHANNELS 3 Zrotation Xrotation Yrotation
				JOINT Spine3
				{
					OFFSET 0.00000 8.61717 0.00000
					CHANNELS 3 Zrotation Xrotation Yrotation
					JOINT Neck
					{
						OFFSET 0.00000 11.07920 1.10792
						CHANNELS 3 Zrotation Xrotation Yrotation
						JOINT Neck1
						{
							OFFSET 0.00000 7.08032 0.00000
							CHANNELS 3 Zrotation Xrotation Yrotation
							JOINT Head
							{
								OFFSET 0.00000 7.08031 0.00000
								CHANNELS 3 Zrotation Xrotation Yrotation
								End site
								{
									OFFSET 0.00000 0.00000 0.00000
								}
							}
						}
					}
					JOINT RightShoulder
					{
						OFFSET -0.01000 7.91373 5.19711
						CHANNELS 3 Zrotation Xrotation Yrotation
						JOINT RightArm
						{
							OFFSET -18.41580 0.00000 0.00000
							CHANNELS 3 Zrotation Xrotation Yrotation
							JOINT RightForeArm
							{
								OFFSET -29.11090 0.00000 0.00000
								CHANNELS 3 Zrotation Xrotation Yrotation
								JOINT RightHand
								{
									OFFSET -24.65040 0.00000 0.00000
									CHANNELS 3 Zrotation Xrotation Yrotation
									JOINT RightHandThumb1
									{
										OFFSET -5.35114 -0.85590 3.97906
										CHANNELS 3 Zrotation Xrotation Yrotation
										JOINT RightHandThumb2
										{
											OFFSET -4.52789 0.00000 0.00000
											CHANNELS 3 Zrotation Xrotation Yrotation
											JOINT RightHandThumb3
											{
												OFFSET -2.46976 0.00000 0.00000
												CHANNELS 3 Zrotation Xrotation Yrotation
												End site
												{
													OFFSET 0.00000 0.00000 0.00000
												}
											}
										}
									}
									JOINT RightHandIndex1
									{
										OFFSET -14.26970 0.00000 2.88139
										CHANNELS 3 Zrotation Xrotation Yrotation
										JOINT RightHandIndex2
										{
											OFFSET -5.48836 0.00000 0.00000
											CHANNELS 3 Zrotation Xrotation Yrotation
											JOINT RightHandIndex3
											{
												OFFSET -3.01859 0.00000 0.00000
												CHANNELS 3 Zrotation Xrotation Yrotation
												End site
												{
													OFFSET 0.00000 0.00000 0.00000
												}
											}
										}
									}
									JOINT RightHandMiddle1
									{
										OFFSET -14.26970 0.00000 -0.09147
										CHANNELS 3 Zrotation Xrotation Yrotation
										JOINT RightHandMiddle2
										{
											OFFSET -6.17441 0.00000 0.00000
											CHANNELS 3 Zrotation Xrotation Yrotation
											JOINT RightHandMiddle3
											{
												OFFSET -3.56743 0.00000 0.00000
												CHANNELS 3 Zrotation Xrotation Yrotation
												End site
												{
													OFFSET 0.00000 0.00000 0.00000
												}
											}
										}
									}
									JOINT RightHandRing1
									{
										OFFSET -12.69180 0.00000 -3.06433
										CHANNELS 3 Zrotation Xrotation Yrotation
										JOINT RightHandRing2
										{
											OFFSET -5.62556 0.00000 0.00000
											CHANNELS 3 Zrotation Xrotation Yrotation
											JOINT RightHandRing3
											{
												OFFSET -3.56744 0.00000 0.00000
												CHANNELS 3 Zrotation Xrotation Yrotation
												End site
												{
													OFFSET 0.00000 0.00000 0.00000
												}
											}
										}
									}
									JOINT RightHandPinky1
									{
										OFFSET -11.11390 0.00000 -6.03719
										CHANNELS 3 Zrotation Xrotation Yrotation
										JOINT RightHandPinky2
										{
											OFFSET -4.52789 0.00000 0.00000
											CHANNELS 3 Zrotation Xrotation Yrotation
											JOINT RightHandPinky3
											{
												OFFSET -2.46976 0.00000 0.00000
												CHANNELS 3 Zrotation Xrotation Yrotation
												End site
												{
													OFFSET 0.00000 0.00000 0.00000
												}
											}
										}
									}
								}
							}
						}
					}
					JOINT LeftShoulder
					{
						OFFSET 0.01000 7.91373 5.19711
						CHANNELS 3 Zrotation Xrotation Yrotation
						JOINT LeftArm
						{
							OFFSET 18.41580 0.00000 0.00000
							CHANNELS 3 Zrotation Xrotation Yrotation
							JOINT LeftForeArm
							{
								OFFSET 29.11090 0.00000 0.00000
								CHANNELS 3 Zrotation Xrotation Yrotation
								JOINT LeftHand
								{
									OFFSET 24.65040 0.00000 0.00000
									CHANNELS 3 Zrotation Xrotation Yrotation
									JOINT LeftHandThumb1
									{
										OFFSET 5.35114 -0.85590 3.97906
										CHANNELS 3 Zrotation Xrotation Yrotation
										JOINT LeftHandThumb2
										{
											OFFSET 4.52789 0.00000 0.00000
											CHANNELS 3 Zrotation Xrotation Yrotation
											JOINT LeftHandThumb3
											{
												OFFSET 2.46977 0.00000 0.00000
												CHANNELS 3 Zrotation Xrotation Yrotation
												End site
												{
													OFFSET 0.00000 0.00000 0.00000
												}
											}
										}
									}
									JOINT LeftHandIndex1
									{
										OFFSET 14.26970 0.00000 2.88139
										CHANNELS 3 Zrotation Xrotation Yrotation
										JOINT LeftHandIndex2
										{
											OFFSET 5.48836 0.00000 0.00000
											CHANNELS 3 Zrotation Xrotation Yrotation
											JOINT LeftHandIndex3
											{
												OFFSET 3.01859 0.00000 0.00000
												CHANNELS 3 Zrotation Xrotation Yrotation
												End site
												{
													OFFSET 0.00000 0.00000 0.00000
												}
											}
										}
									}
									JOINT LeftHandMiddle1
									{
										OFFSET 14.26970 0.00000 -0.09147
										CHANNELS 3 Zrotation Xrotation Yrotation
										JOINT LeftHandMiddle2
										{
											OFFSET 6.17440 0.00000 0.00000
											CHANNELS 3 Zrotation Xrotation Yrotation
											JOINT LeftHandMiddle3
											{
												OFFSET 3.56744 0.00000 0.00000
												CHANNELS 3 Zrotation Xrotation Yrotation
												End site
												{
													OFFSET 0.00000 0.00000 0.00000
												}
											}
										}
									}
									JOINT LeftHandRing1
									{
										OFFSET 12.69180 0.00000 -3.06433
										CHANNELS 3 Zrotation Xrotation Yrotation
										JOINT LeftHandRing2
										{
											OFFSET 5.62556 0.00000 0.00000
											CHANNELS 3 Zrotation Xrotation Yrotation
											JOINT LeftHandRing3
											{
												OFFSET 3.56744 0.00000 0.00000
												CHANNELS 3 Zrotation Xrotation Yrotation
												End site
												{
													OFFSET 0.00000 0.00000 0.00000
												}
											}
										}
									}
									JOINT LeftHandPinky1
									{
										OFFSET 11.11390 0.00000 -6.03719
										CHANNELS 3 Zrotation Xrotation Yrotation
										JOINT LeftHandPinky2
										{
											OFFSET 4.52789 0.00000 0.00000
											CHANNELS 3 Zrotation Xrotation Yrotation
											JOINT LeftHandPinky3
											{
												OFFSET 2.46976 0.00000 0.00000
												CHANNELS 3 Zrotation Xrotation Yrotation
												End site
												{
													OFFSET 0.00000 0.00000 0.00000
												}
											}
										}
									}
								}
							}
						}
					}
					JOINT pCube4
					{
						OFFSET 0.00000 10.91090 1.10792
						CHANNELS 3 Zrotation Xrotation Yrotation
						End site
						{
							OFFSET 0.00000 0.00000 0.00000
						}
					}
				}
			}
		}
	}
	JOINT RightUpLeg
	{
		OFFSET -9.98441 0.00000 0.00000
		CHANNELS 3 Zrotation Xrotation Yrotation
		JOINT RightLeg
		{
			OFFSET 0.00000 -42.11790 0.00000
			CHANNELS 3 Zrotation Xrotation Yrotation
			JOINT RightFoot
			{
				OFFSET 0.00000 -45.00020 -0.00001
				CHANNELS 3 Zrotation Xrotation Yrotation
				JOINT RightForeFoot
				{
					OFFSET 0.00000 -3.74820 0.00000
					CHANNELS 3 Zrotation Xrotation Yrotation
					JOINT RightToeBase
					{
						OFFSET 0.00000 0.06325 14.43120
						CHANNELS 3 Zrotation Xrotation Yrotation
						End site
						{
							OFFSET 0.00000 0.00000 0.00000
						}
					}
				}
			}
		}
	}
	JOINT LeftUpLeg
	{
		OFFSET 9.98441 0.00000 0.00000
		CHANNELS 3 Zrotation Xrotation Yrotation
		JOINT LeftLeg
		{
			OFFSET 0.00000 -42.11800 0.00000
			CHANNELS 3 Zrotation Xrotation Yrotation
			JOINT LeftFoot
			{
				OFFSET 0.00000 -45.00070 0.00000
				CHANNELS 3 Zrotation Xrotation Yrotation
				JOINT LeftForeFoot
				{
					OFFSET 0.00000 -3.74824 0.00000
					CHANNELS 3 Zrotation Xrotation Yrotation
					JOINT LeftToeBase
					{
						OFFSET 0.00000 0.06325 14.43110
						CHANNELS 3 Zrotation Xrotation Yrotation
						End site
						{
							OFFSET 0.00000 0.00000 0.00000
						}
					}
				}
			}
		}
	}
}
MOTION
Frames: 4
Frame Time: 0.050000
-0.010529972497537324 0.03782025599559436 -0.042985954684668565 0.02274689625000248 0.032565077853269016 -0.00885405895233824 3.466887426207334 4.54426759497531 -1.7905191072273599 -0.7966926269358895 3.4982617004184395 0.42200479769200716 -0.7024036006396123 -1.1316647709573473 -0.4327404737889652 -0.42770527092588373 -0.3895163506099703 -0.5315712783150036 -0.40281544199441993 12.600375661566844 -1.0898800441479417 0.3347188197033182 -0.4310654130285186 -2.5048007482861125 0.7252835067130743 -16.54220283602486 -0.20006750039798485 -9.184664515086153 3.341222212486862 -16.800987195420895 73.02665302149119 -6.60623215041927 1.650962309004786 1.3163989035887136 0.48991651951807474 67.11476058159053 16.209694715318108 -0.37296494449965834 -1.9833288976054173 4.5376071235916635 -0.13876786398443602 -1.5882984207429844 0.01500570183129888 -0.04946181334806228 -56.28155371890822 0.025196369710543266 0.01942362603586846 -56.23896540528872 -38.72298612650642 0.024816667100155895 0.02664897189993544 -0.019938207624070167 -0.03718716947407405 -0.009521514238034606 -0.0033187603096914474 -0.004494752310754894 -0.04149815008871063 -36.66642827660281 0.04550207246504934 0.039939874942001005 0.022766513610631634 -0.043586630613823014 0.04928990297333797 -0.00813839338281152 0.049410755668815746 -0.033670533983563046 -19.791633590182578 -0.014378843244115456 0.012278631894845507 0.048998883405148026 -0.02698145247602908 -0.01846366545564384 0.008915435271522972 0.010541904328243795 0.025847562999982577 24.08826925367114 0.0242677212955353 0.02531930385942552 28.819385314931875 0.02050091979313792 -0.04841828211747856 28.87662167028099 -0.01340821997620747 -0.019229264371075996 11.545707365020052 2.7935140618149705 14.719472297259808 -62.9457094380072 2.094084587665278 -23.35384766173564 -12.961020275167382 -4.300477712809216 -85.44270575982726 -12.206801466318161 -3.140863624153881 -0.9788222564218311 -0.4502264390844443 0.0495720429362831 -8.106912350628193 0.02139655766763053 0.007711891098745549 44.57619820613933 -0.03144378545296761 0.03605236358553307 44.61117039452245 12.493854394358367 0.03776134120195669 0.026071607711580676 0.02938481985071877 0.03300889789276065 0.02560163946996507 -0.024060398113183223 -0.013320660413765607 0.020110198630405245 11.109354551963364 -0.011438826280451096 -0.031952787973499985 -0.01737152027767438 0.040574132224558856 -0.03746883416692395 -0.0014921792512807043 0.004039217409841795 0.04786241921474618 4.755557413869844 0.04911702909681404 0.01724822659166144 0.03534124169912743 0.030889539978581317 -0.04275165520736937 -0.020873572661934403 0.018807002040399257 0.006147403470158996 -5.6078570685108655 0.0242159444908345 0.005548787106969504 -6.700250088832059 0.006747081379698143 -0.0008197524363115467 -6.685990527122657 -0.02550849456108088 -0.0029046052110036 -0.00933583519276186 0.03427972116141325 -0.04722689824074434 8.07030301840272 3.539633997552452 -19.245187483659716 0.01562944880954879 10.402205445150221 -0.007190442800434221 -5.625743094040341 -15.610977830222993 3.1892900430545845 -0.01572788822371513 0.001117189165405179 -0.043022919277788736 0.04165959369115541 4.694413522697216 -0.02278133268777027 12.435333087879606 -8.22376818721947 6.887397494296343 -0.012039130420338898 46.35363705601352 -0.0017297576977414696 -4.276499157464222 -14.797150315956467 -3.8234836875799574 -0.04541630285647649 -0.02308518234453807 0.036569569606060746 -0.041680185465229655 -10.743502216529956 0.004649408264994741 
-0.010056988245719694 0.03337764311936834 -0.03043227312446254 -0.025144984377642773 0.027218633408270146 -0.018903530107710648 3.5293415472885115 4.4411242644451585 -1.8203497925526044 -0.8287630625045542 3.4931702524712422 0.33765863465077717 -0.6778278234672562 -1.209670782775773 -0.5137163968202453 -0.43435394466512683 -0.42088583698111587 -0.5542149408350248 -0.43305345770006365 12.654335930359522 -1.0090136274102206 0.34638688891985603 -0.40349447054897414 -2.1097122848281673 0.6481494508370341 -16.601565098351887 -0.19950711597676413 -9.359434892496434 3.414359478875916 -16.89987499921669 73.30426593122326 -6.607749079992041 1.0497863372730933 1.3151835453504415 -0.26008671743305667 67.63000313484991 16.0698930561874 -0.3614466786633556 -1.9124664845212265 4.506758602030014 -0.13183616942196097 -1.5712146028142602 0.02718719678514834 0.0011543823475352764 -56.242392160754626 -0.027892768017303705 0.021151370105306686 -56.22938318541415 -38.73016715594449 0.018011568227706953 0.023855355097493258 0.044622500126237884 -0.011811389271192463 -0.009797847637152652 -0.04138413192009703 -0.014623348032567028 0.015455524747095382 -36.672524236743065 0.026275475565733997 0.04232646875124157 -0.03527823282872333 -0.0006382085235247137 0.02524627843543394 0.02080439435364963 -0.019337584865785226 -0.029882123809899408 -19.77447173111068 -0.008504518531065179 0.027491754570161463 0.04137120842826646 0.03574041692705103 0.0011874056276252657 -0.003688684291936884 -0.011698675115033095 0.042965559482357474 24.10395367504703 -0.013740668061584598 -0.0063408461264962655 28.865706981194915 -0.0007896630814318622 0.028730377884649164 28.896867015519454 0.006518325478981768 0.01915442624539154 11.931233593032111 2.83419719787394 14.759591207875609 -62.40136111199797 1.6476417434137585 -24.160672460084946 -12.672904741965555 -5.100800800308016 -86.34977803843668 -11.972768941850923 -3.415882882742579 -0.9122341606333316 -0.5058984901440299 0.11470309646943244 -8.126860147452566 -0.029358063150200998 0.008739060648534644 44.54109216451876 -0.016793020247697174 -0.03500539165748003 44.57632505906412 12.422006112185215 -0.006952588677900977 -0.0339926519394693 -0.004150685565843008 0.036405076702566985 0.046221494172914705 0.010719736148216408 0.0016908417089775147 -0.003304560729764665 11.13593994071139 -0.04034809991983916 -0.006908994162294518 -0.0008302848018565672 -0.00020760811771454736 -0.019630075781772244 0.02958337350442261 -0.04148740715673539 0.035838325509853906 4.817913288643763 -0.03472196005946097 0.0011132243318655915 0.04584762319308662 0.02949539005548826 -0.004703569536292302 0.0105764176222475 0.04412652887382157 -4.9466919880616934e-05 -5.604636963365994 -0.023403430127341432 -0.03001170230265847 -6.690133543071174 0.0066744592425921736 -0.029283820359797146 -6.749390260748964 -0.002645341487079054 -0.008891949701319674 -0.016300669734180828 0.0021707553941889336 -0.03568037107051498 8.083043693052318 3.5169924806550767 -19.210176102337286 -0.015750932998309743 10.372152195039703 0.06335474606399882 -5.65160250957756 -15.705902953870561 3.1940716122511477 0.014314137220169746 0.033571580689139985 0.03541992081364594 -0.03874306919343037 4.719933664623461 0.007467599090083032 12.47133191757554 -8.28607816363443 6.84110161076756 -0.00431540230969265 46.35803574592626 0.022685507023301264 -4.302497342077147 -14.737138981719577 -3.813298359791362 -0.01825514147948753 -0.017596559862752426 -0.007544832794344884 0.04243101090779682 -10.708493684158487 -0.04870779561675684 
0.016524114520660545 -0.038674170423051685 -0.015858565085564436 0.01759029569294059 -0.04316544851224303 0.03049791921060313 3.5570009641474774 4.408510489456068 -1.8317181711970485 -0.7666877241568368 3.4653123229059433 0.35243362936586276 -0.6125240322229645 -1.1919498649010725 -0.599956926680508 -0.4879396838585802 -0.42533172958497145 -0.5816782542622398 -0.5092547524291103 12.645458156416671 -0.9050416702565593 0.28672556637786506 -0.4845238639374435 -1.7768387465991757 0.618902333918692 -16.677449917841223 -0.15103877400352883 -9.445034311621038 3.412015999251854 -17.032258660714504 73.57991495306496 -6.546669662066499 0.11286322981500985 1.0922979507430512 -0.9855773808799897 68.02394299411878 16.42532012370499 -0.3360855524625206 -2.0498657911757716 4.535784408927367 -0.118833962913696 -1.6033698782342045 0.006039293030022163 -0.0274547648354685 -56.24548864824457 -0.0027220140213228107 -0.03294033467692313 -56.23751074992435 -38.73073564192522 0.030110337640701892 -0.01585778100168744 0.02100884323893403 0.028374597024688912 0.026269681775438654 -0.03801233646956026 0.03749751289986847 -0.04764606601796642 -36.70907746156126 0.023294361261071924 0.0153425512891906 0.018351614329140977 0.011309658694732886 -0.015168935710787104 -0.019394003097425044 -0.001535210263034534 0.04442307463606979 -19.775490122931657 0.012638851725225173 -0.021655466719366395 -0.030152816380451856 -0.016818027393336647 -0.034092302039740265 0.004524009129268804 0.014905956948636133 -0.014992612776906116 24.019235929994373 -0.041276804523038085 -0.006958038173286618 28.859170383001366 -0.01686403098169481 -0.013301299489813154 28.892049839266033 -0.04447112387206198 0.0494584337478664 12.159376922894916 2.873927769633428 14.817446666535055 -62.05753067991023 1.2746854825549763 -24.74463040043399 -12.873292383435095 -5.7247318947002475 -87.3804893182476 -12.03774413140303 -3.5696056354659937 -0.9270177828122464 -0.4829038030528213 0.10553642958337818 -8.109348301912313 0.00872471981430353 0.033069277905534905 44.53381309058581 -0.0320977258142503 0.04673202060048481 44.563773339507236 12.444386530775155 0.022454186911150448 0.017431153538598733 0.009500523725059065 0.022578885084931218 0.029222027523767874 -0.04692306425989006 -0.005430380340562111 -0.023821620115265653 11.058178231125002 -0.04683698997194125 -0.0002948147811908895 -0.024810683264739012 -0.0010085344347964434 -0.033991249414556876 0.028464622643410945 0.0296847642486829 -0.018932063152160394 4.763699728802329 -0.003962352290641571 -0.01758368068069117 -0.016747304754594662 -0.008856361711609395 0.009519147888392683 0.011034713929805567 0.03142885899602558 0.04166324873845737 -5.604884266349612 -0.03173624830608857 0.030740471530023072 -6.70525266294547 0.014376911314292596 0.008591094273080508 -6.708853185866989 -0.01507905744741785 -0.001757105088555018 -0.00830447777913762 -0.025626425826564214 -0.03755368442728412 8.007668262688705 3.459647246794503 -19.263168408526024 0.04900567561871701 10.369896699065055 0.04809282536531034 -5.608485974734882 -15.661859255498102 3.1932787903646966 -0.002499886664187565 0.02801907693535594 -0.03202180857208734 0.01790417591707549 4.652661529136996 0.02684194301628814 12.417413751876373 -8.252092609426843 6.907505809156086 -0.024455424488164203 46.39172459943379 -0.03029286324913342 -4.356736134369811 -14.736242909306268 -3.8495670972826943 0.020997248249959688 0.028550028095919795 -0.00444625998535596 -0.028176165124184898 -10.712204855800598 0.014154701872876258 
0.03244102694230968 -0.037759841325653416 -0.0003611165595154245 0.0013301709730860938 -0.04681398644171289 -0.0060489441063845415 3.367572181897234 4.587624835409141 -1.8301461639360772 -0.7578248465455686 3.461188021363226 0.3649566740636424 -0.6730668354541237 -1.176297375741067 -0.835070426486507 -0.48853469735380484 -0.4293748912616829 -0.5322419583045063 -0.5226361447493685 12.431383816867177 -0.9241884991511653 0.3147728371932568 -0.44751195192795734 -1.8834338311421264 0.6160238925661295 -16.71767941593159 -0.17874371793880178 -9.079554125313523 3.331446954485943 -16.924584207080397 73.58198409723926 -6.784608901176896 -0.8958173120591171 0.42892831993617897 -1.2835454170945064 68.22878578512649 17.430460566175082 -0.4077564470870786 -2.204518556131101 4.540044555712177 -0.16375185139801224 -1.636535025174109 0.006303511994888352 -0.037854366407741515 -56.247631412904084 0.015765277995438077 0.00034334521199879146 -56.19088661301505 -38.72595651025732 -0.029003399920721835 0.0394497542152552 0.034486850237953594 0.0009509655992389347 0.03902822896042786 -0.03394733669286738 -0.027511424316168844 0.015974379657627 -36.6603461399702 -0.034133101177011564 0.02984476701186948 -0.006283272323174311 -0.046699618146441794 0.032989210834685104 -0.02526593909670855 0.03898010154789249 0.0030308402882935417 -19.7493206651244 -0.019138254804769623 0.024163483180396697 0.04747711037355374 -0.02917193290364534 -0.028637411857609044 -0.022500597447780653 -0.03434028697441596 -0.029157460360500476 24.044620262614696 0.0413800747705626 0.010048377702188697 28.886409984945207 -0.02884017043799024 0.0019460498097733654 28.90447891629464 -0.03319423850717403 0.0012959188779171336 11.91770077149906 2.838586575352174 14.707218263200037 -61.29032720423039 0.9604221606246812 -25.046666144999765 -13.382664215325862 -6.089789426153176 -88.72284682883702 -12.387576189136961 -3.6970354139102755 -1.0873447695051297 -0.4443801816171405 0.09322577982542835 -8.122784159048502 0.001154174828893554 -0.03613945866852369 44.60582958357536 -0.026524743271690528 -0.010353627184317527 44.57582068722868 12.459919939446271 0.045125484837065424 0.028283758275963782 0.017750585110493367 0.0474890395838522 -0.04081539564759697 0.046806704966756055 0.001973954357272271 0.0011748018602363566 11.08300289517909 0.03475018235117155 0.029679943617917724 0.019378482202544664 0.026588232264884697 0.0359128447379212 -0.031402241607061496 0.021422188012301505 0.011731448752043397 4.742117088797291 0.0001256008072610243 -0.04447319031586621 -0.023544101854065632 -0.0401460712854157 0.011617690804285786 -0.048503026051329765 -0.014539489594702611 -0.024772353535080584 -5.645881225160379 -0.014175863153129123 0.02782256710224537 -6.726767433967217 0.0471625712668875 -0.021404723525563 -6.726118487054029 0.03653352274833671 0.010789197837810164 -0.03713129518072927 0.0078430689900364 -0.005597605389743506 7.9972975705625515 3.4700192073659357 -19.215444362776125 0.001231525338955977 10.388407921532071 0.04153606928649831 -5.618448821949485 -15.643397367372245 3.177946276485173 0.0218301513970773 0.03466940180002128 -0.045643377039415664 0.015517574781793669 4.661760750148565 -0.033959346465497704 12.431748158264194 -8.273464559492087 6.906122525422446 0.018995173868533936 46.345165358571464 0.04648352703761774 -4.32108106919501 -14.752903673328799 -3.8079417094592483 -0.04262776782389112 0.032886717229122155 0.001619289428676028 0.04941479613690251 -10.739935218745536 0.018822354512112865 
